<svg height="48" viewBox="0 0 38 48" width="38" xmlns="http://www.w3.org/2000/svg"><g fill="none" fill-rule="evenodd"><g transform="matrix(-1 0 0 -1 37.956 48)"><path d="m18.9027436 27.1497651-8.3001246 4.8318145-6.48576056-3.8589176c-3.98041538-2.3682796-5.30309802-7.5416698-2.95429434-11.5550903.7191462-1.2288111 1.73558856-2.2536817 2.95429434-2.9787909l22.83893786-13.5887808v9.77024786l-18.63157891 11.08547354z" fill="#78ffb9"/><path d="m8.32626641 20.8569405 10.57647719 6.2928246-8.3001246 4.8318145-6.48576056-3.8589176c-.08561083-.050937-.1699922-.1031716-.25313404-.1566644-1.14505458-.8004164-1.49943762-2.3689129-.78003731-3.5981582.23066953-.394147.55669822-.7228791.94760384-.9554613z" fill="#000" fill-opacity=".07"/></g><path d="m18.9027436 27.1497651-8.3001246 4.8318145-6.48576056-3.8589176c-3.98041538-2.3682796-5.30309802-7.5416698-2.95429434-11.5550903.7191462-1.2288111 1.73558856-2.2536817 2.95429434-2.9787909l22.83893786-13.5887808v9.77024786l-18.63157891 11.08547354z" fill="#78ffb9"/><path d="m8.32626641 20.8569405 10.57647719 6.2928246-8.3001246 4.8318145-6.48576056-3.8589176c-.08561083-.050937-.1699922-.1031716-.25313404-.1566644-1.14505458-.8004164-1.49943762-2.3689129-.78003731-3.5981582.23066953-.394147.55669822-.7228791.94760384-.9554613z" fill="#000" fill-opacity=".07"/></g></svg>