<svg height="48" viewBox="0 0 231 48" width="231" xmlns="http://www.w3.org/2000/svg"><g fill="none" fill-rule="evenodd"><g transform="matrix(-1 0 0 -1 37.956 48)"><path d="m18.9027436 27.1497651-8.3001246 4.8318145-6.48576056-3.8589176c-3.98041538-2.3682796-5.30309802-7.5416698-2.95429434-11.5550903.7191462-1.2288111 1.73558856-2.2536817 2.95429434-2.9787909l22.83893786-13.5887808v9.77024786l-18.63157891 11.08547354z" fill="#78ffb9"/><path d="m8.32626641 20.8569405 10.57647719 6.2928246-8.3001246 4.8318145-6.48576056-3.8589176c-.08561083-.050937-.1699922-.1031716-.25313404-.1566644-1.14505458-.8004164-1.49943762-2.3689129-.78003731-3.5981582.23066953-.394147.55669822-.7228791.94760384-.9554613z" fill="#000" fill-opacity=".07"/></g><path d="m18.9027436 27.1497651-8.3001246 4.8318145-6.48576056-3.8589176c-3.98041538-2.3682796-5.30309802-7.5416698-2.95429434-11.5550903.7191462-1.2288111 1.73558856-2.2536817 2.95429434-2.9787909l22.83893786-13.5887808v9.77024786l-18.63157891 11.08547354z" fill="#78ffb9"/><g fill="#000"><path d="m8.32626641 20.8569405 10.57647719 6.2928246-8.3001246 4.8318145-6.48576056-3.8589176c-.08561083-.050937-.1699922-.1031716-.25313404-.1566644-1.14505458-.8004164-1.49943762-2.3689129-.78003731-3.5981582.23066953-.394147.55669822-.7228791.94760384-.9554613z" fill-opacity=".07"/><path d="m56.448 29.624c0 1.1520058.2079979 2.127996.624 2.928s.9679966 1.4479975 1.656 1.944 1.4959954.8639988 2.424 1.104 1.887995.36 2.88.36c.6720034 0 1.3919962-.0559994 2.16-.168s1.4879966-.3279984 2.16-.648 1.2319978-.7599972 1.68-1.32.672-1.2719957.672-2.136c0-.9280046-.295997-1.6799971-.888-2.256s-1.3679952-1.0559981-2.328-1.44-2.0479939-.7199986-3.264-1.008-2.4479938-.6079982-3.696-.96c-1.2800064-.3200016-2.5279939-.7119977-3.744-1.176s-2.3039952-1.0639963-3.264-1.8-1.735997-1.6559945-2.328-2.76-.888-2.4399922-.888-4.008c0-1.7600088.3759962-3.2879935 1.128-4.584s1.7359939-2.37599568 2.952-3.24 2.5919923-1.50399792 4.128-1.92 3.0719923-.624 4.608-.624c1.792009 0 3.5119918.199998 5.16.6s3.1119936 1.04799552 4.392 1.944 2.2959962 2.039993 3.048 3.432 1.128 3.0799901 1.128 5.064h-7.296c-.0640003-1.0240051-.2799982-1.8719966-.648-2.544s-.855997-1.1999981-1.464-1.584-1.3039961-.6559992-2.088-.816-1.6399954-.24-2.568-.24c-.608003 0-1.215997.0639994-1.824.192s-1.1599975.3519984-1.656.672-.9039984.7199976-1.224 1.2-.48 1.0879963-.48 1.824c0 .6720034.1279987 1.2159979.384 1.632s.7599962.7999982 1.512 1.152 1.7919934.7039982 3.12 1.056 3.0639893.7999973 5.208 1.344c.6400032.1280006 1.5279943.3599983 2.664.696s2.2639944.8719963 3.384 1.608 2.0879959 1.7199938 2.904 2.952 1.224 2.8079904 1.224 4.728c0 1.5680078-.303997 3.0239933-.912 4.368s-1.511994 2.5039951-2.712 3.48-2.6879911 1.7359973-4.464 2.28-3.8319883.816-6.168.816c-1.8880094 0-3.7199911-.2319977-5.496-.696s-3.3439932-1.191995-4.704-2.184-2.439996-2.2559923-3.24-3.792-1.1840002-3.3599894-1.152-5.472zm32.304-17.28h-6.816v-5.616h6.816zm-6.816 3.84h6.816v24.816h-6.816zm12.192 0h6.48v3.456h.144c.864004-1.4400072 1.983993-2.4879967 3.36-3.144s2.783993-.984 4.224-.984c1.824009 0 3.319994.2479975 4.488.744s2.087997 1.1839956 2.76 2.064 1.143999 1.9519937 1.416 3.216.408 2.6639923.408 4.2v15.264h-6.816v-14.016c0-2.0480102-.319997-3.575995-.96-4.584s-1.775992-1.512-3.408-1.512c-1.856009 0-3.199996.5519945-4.032 1.656s-1.248 2.9199874-1.248 5.448v13.008h-6.816zm51.744 24.816h-6.48v-3.456h-.144c-.864004 1.4400072-1.983993 2.4799968-3.36 3.12s-2.783993.96-4.224.96c-1.824009 0-3.319994-.2399976-4.488-.72s-2.087997-1.1599956-2.76-2.04-1.143999-1.9519937-1.416-3.216-.408-2.6639923-.408-4.2v-15.264h6.816v14.016c0 2.0480102.319997 3.575995.96 4.584s1.775992 1.512 3.408 1.512c1.856009 0 3.199996-.5519945 4.032-1.656s1.248-2.9199874 1.248-5.448v-13.008h6.816zm11.232-12.384c0 .992005.095999 1.9599953.288 2.904s.519998 1.7919962.984 2.544 1.079996 1.3519978 1.848 1.8 1.727994.672 2.88.672 2.119996-.2239978 2.904-.672 1.407998-1.0479962 1.872-1.8.791999-1.5999953.984-2.544.288-1.911995.288-2.904-.095999-1.9679952-.288-2.928-.519998-1.8079963-.984-2.544-1.087996-1.3359977-1.872-1.8-1.751994-.696-2.904-.696-2.111996.2319977-2.88.696-1.383998 1.0639963-1.848 1.8-.791999 1.5839952-.984 2.544-.288 1.935995-.288 2.928zm-6.816 0c0-1.9840099.303997-3.7839919.912-5.4s1.471994-2.9919943 2.592-4.128 2.463992-2.0159969 4.032-2.64 3.32799-.936 5.28-.936 3.719992.3119969 5.304.936 2.935994 1.5039943 4.056 2.64 1.983997 2.5119919 2.592 4.128.912 3.4159901.912 5.4-.303997 3.775992-.912 5.376-1.471994 2.9679943-2.592 4.104-2.471992 2.007997-4.056 2.616-3.35199.912-5.304.912-3.711992-.303997-5.28-.912-2.911994-1.4799943-4.032-2.616-1.983997-2.503992-2.592-4.104-.912-3.3919901-.912-5.376zm53.376 12.384h-6.48v-3.456h-.144c-.864004 1.4400072-1.983993 2.4799968-3.36 3.12s-2.783993.96-4.224.96c-1.824009 0-3.319994-.2399976-4.488-.72s-2.087997-1.1599956-2.76-2.04-1.143999-1.9519937-1.416-3.216-.408-2.6639923-.408-4.2v-15.264h6.816v14.016c0 2.0480102.319997 3.575995.96 4.584s1.775992 1.512 3.408 1.512c1.856009 0 3.199996-.5519945 4.032-1.656s1.248-2.9199874 1.248-5.448v-13.008h6.816zm10.464-8.064c0 .7360037.151998 1.3679974.456 1.896s.695998.9599983 1.176 1.296 1.031997.5839992 1.656.744 1.271997.24 1.944.24c.480002 0 .983997-.0559994 1.512-.168s1.007998-.2879988 1.44-.528.791999-.559998 1.08-.96.432-.903997.432-1.512c0-1.0240051-.679993-1.7919974-2.04-2.304s-3.255988-1.0239974-5.688-1.536c-.992005-.2240011-1.959995-.4879985-2.904-.792s-1.783996-.7039975-2.52-1.2-1.327998-1.1199962-1.776-1.872-.672-1.6719946-.672-2.76c0-1.600008.311997-2.9119949.936-3.936s1.447995-1.831997 2.472-2.424 2.175994-1.0079988 3.456-1.248 2.591993-.36 3.936-.36 2.647994.1279987 3.912.384 2.391995.687997 3.384 1.296 1.815997 1.415995 2.472 2.424 1.047999 2.2799923 1.176 3.816h-6.48c-.096-1.3120066-.591996-2.1999977-1.488-2.664s-1.951994-.696-3.168-.696c-.384002 0-.799998.0239998-1.248.072s-.855998.1519992-1.224.312-.679999.3919985-.936.696-.384.7119974-.384 1.224c0 .608003.223998 1.1039981.672 1.488s1.031996.6959988 1.752.936 1.543995.455999 2.472.648 1.871995.3999989 2.832.624c.992005.2240011 1.959995.4959984 2.904.816s1.783996.7439974 2.52 1.272 1.327998 1.1839961 1.776 1.968.672 1.7519942.672 2.904c0 1.6320082-.327997 2.9999945-.984 4.104s-1.511995 1.9919966-2.568 2.664-2.263993 1.1439986-3.624 1.416-2.743993.408-4.152.408c-1.440007 0-2.847993-.1439986-4.224-.432s-2.599995-.7679966-3.672-1.44-1.951997-1.5599945-2.64-2.664-1.064-2.4879917-1.128-4.152z" fill-rule="nonzero"/></g></g></svg>