<svg xmlns="http://www.w3.org/2000/svg" width="226" height="48" viewBox="0 0 226 48">
  <g fill="none" fill-rule="evenodd">
    <g transform="rotate(180 18.978 24)">
      <path fill="#78FFB9" d="M18.9027436,27.1497651 L10.602619,31.9815796 L4.11685844,28.122662 C0.136443055,25.7543824 -1.18623958,20.5809922 1.1625641,16.5675717 C1.8817103,15.3387606 2.89815266,14.31389 4.11685844,13.5887808 L26.9557963,0 L26.9557963,9.77024786 L8.32421739,20.8557214 L18.9027436,27.1497651 Z"/>
      <path fill="#000" fill-opacity=".07" d="M8.32626641,20.8569405 L18.9027436,27.1497651 L10.602619,31.9815796 L4.11685844,28.122662 C4.03124761,28.071725 3.94686624,28.0194904 3.8637244,27.9659976 C2.71866982,27.1655812 2.36428678,25.5970847 3.08368709,24.3678394 C3.31435662,23.9736924 3.64038531,23.6449603 4.03129093,23.4123781 L8.32626641,20.8569405 Z"/>
    </g>
    <path fill="#78FFB9" d="M18.9027436,27.1497651 L10.602619,31.9815796 L4.11685844,28.122662 C0.136443055,25.7543824 -1.18623958,20.5809922 1.1625641,16.5675717 C1.8817103,15.3387606 2.89815266,14.31389 4.11685844,13.5887808 L26.9557963,0 L26.9557963,9.77024786 L8.32421739,20.8557214 L18.9027436,27.1497651 Z"/>
    <path fill="#000" fill-opacity=".07" d="M8.32626641,20.8569405 L18.9027436,27.1497651 L10.602619,31.9815796 L4.11685844,28.122662 C4.03124761,28.071725 3.94686624,28.0194904 3.8637244,27.9659976 C2.71866982,27.1655812 2.36428678,25.5970847 3.08368709,24.3678394 C3.31435662,23.9736924 3.64038531,23.6449603 4.03129093,23.4123781 L8.32626641,20.8569405 Z"/>
    <path fill="#000" fill-rule="nonzero" d="M56.448,29.624 C56.448,30.7760058 56.6559979,31.751996 57.072,32.552 C57.4880021,33.352004 58.0399966,33.9999975 58.728,34.496 C59.4160034,34.9920025 60.2239954,35.3599988 61.152,35.6 C62.0800046,35.8400012 63.039995,35.96 64.032,35.96 C64.7040034,35.96 65.4239962,35.9040006 66.192,35.792 C66.9600038,35.6799994 67.6799966,35.4640016 68.352,35.144 C69.0240034,34.8239984 69.5839978,34.3840028 70.032,33.824 C70.4800022,33.2639972 70.704,32.5520043 70.704,31.688 C70.704,30.7599954 70.408003,30.0080029 69.816,29.432 C69.223997,28.8559971 68.4480048,28.3760019 67.488,27.992 C66.5279952,27.6079981 65.4400061,27.2720014 64.224,26.984 C63.0079939,26.6959986 61.7760062,26.3760018 60.528,26.024 C59.2479936,25.7039984 58.0000061,25.3120023 56.784,24.848 C55.5679939,24.3839977 54.4800048,23.7840037 53.52,23.048 C52.5599952,22.3119963 51.784003,21.3920055 51.192,20.288 C50.599997,19.1839945 50.304,17.8480078 50.304,16.28 C50.304,14.5199912 50.6799962,12.9920065 51.432,11.696 C52.1840038,10.3999935 53.1679939,9.32000432 54.384,8.456 C55.6000061,7.59199568 56.9759923,6.95200208 58.512,6.536 C60.0480077,6.11999792 61.5839923,5.912 63.12,5.912 C64.912009,5.912 66.6319918,6.111998 68.28,6.512 C69.9280082,6.912002 71.3919936,7.55999552 72.672,8.456 C73.9520064,9.35200448 74.9679962,10.495993 75.72,11.888 C76.4720038,13.280007 76.848,14.9679901 76.848,16.952 L69.552,16.952 C69.4879997,15.9279949 69.2720018,15.0800034 68.904,14.408 C68.5359982,13.7359966 68.048003,13.2080019 67.44,12.824 C66.831997,12.4399981 66.1360039,12.1680008 65.352,12.008 C64.5679961,11.8479992 63.7120046,11.768 62.784,11.768 C62.175997,11.768 61.568003,11.8319994 60.96,11.96 C60.351997,12.0880006 59.8000025,12.3119984 59.304,12.632 C58.8079975,12.9520016 58.4000016,13.3519976 58.08,13.832 C57.7599984,14.3120024 57.6,14.9199963 57.6,15.656 C57.6,16.3280034 57.7279987,16.8719979 57.984,17.288 C58.2400013,17.7040021 58.7439962,18.0879982 59.496,18.44 C60.2480038,18.7920018 61.2879934,19.1439982 62.616,19.496 C63.9440066,19.8480018 65.6799893,20.2959973 67.824,20.84 C68.4640032,20.9680006 69.3519943,21.1999983 70.488,21.536 C71.6240057,21.8720017 72.7519944,22.4079963 73.872,23.144 C74.9920056,23.8800037 75.9599959,24.8639938 76.776,26.096 C77.5920041,27.3280062 78,28.9039904 78,30.824 C78,32.3920078 77.696003,33.8479933 77.088,35.192 C76.479997,36.5360067 75.576006,37.6959951 74.376,38.672 C73.175994,39.6480049 71.6880089,40.4079973 69.912,40.952 C68.1359911,41.4960027 66.0800117,41.768 63.744,41.768 C61.8559906,41.768 60.0240089,41.5360023 58.248,41.072 C56.4719911,40.6079977 54.9040068,39.880005 53.544,38.888 C52.1839932,37.895995 51.104004,36.6320077 50.304,35.096 C49.503996,33.5599923 49.1199998,31.7360106 49.152,29.624 L56.448,29.624 Z M87.8353331,12.344 L81.0193331,12.344 L81.0193331,6.728 L87.8353331,6.728 L87.8353331,12.344 Z M81.0193331,16.184 L87.8353331,16.184 L87.8353331,41 L81.0193331,41 L81.0193331,16.184 Z M92.2946663,16.184 L98.7746663,16.184 L98.7746663,19.64 L98.9186663,19.64 C99.7826706,18.1999928 100.902659,17.1520033 102.278666,16.496 C103.654673,15.8399967 105.062659,15.512 106.502666,15.512 C108.326675,15.512 109.82266,15.7599975 110.990666,16.256 C112.158672,16.7520025 113.078663,17.4399956 113.750666,18.32 C114.42267,19.2000044 114.894665,20.2719937 115.166666,21.536 C115.438668,22.8000063 115.574666,24.1999923 115.574666,25.736 L115.574666,41 L108.758666,41 L108.758666,26.984 C108.758666,24.9359898 108.438669,23.408005 107.798666,22.4 C107.158663,21.391995 106.022674,20.888 104.390666,20.888 C102.534657,20.888 101.19067,21.4399945 100.358666,22.544 C99.5266621,23.6480055 99.1106663,25.4639874 99.1106663,27.992 L99.1106663,41 L92.2946663,41 L92.2946663,16.184 Z M143.121999,41 L136.641999,41 L136.641999,37.544 L136.497999,37.544 C135.633995,38.9840072 134.514006,40.0239968 133.137999,40.664 C131.761993,41.3040032 130.354007,41.624 128.913999,41.624 C127.08999,41.624 125.594005,41.3840024 124.425999,40.904 C123.257994,40.4239976 122.338003,39.7440044 121.665999,38.864 C120.993996,37.9839956 120.522001,36.9120063 120.249999,35.648 C119.977998,34.3839937 119.841999,32.9840077 119.841999,31.448 L119.841999,16.184 L126.657999,16.184 L126.657999,30.2 C126.657999,32.2480102 126.977996,33.775995 127.617999,34.784 C128.258003,35.792005 129.393991,36.296 131.025999,36.296 C132.882009,36.296 134.225995,35.7440055 135.057999,34.64 C135.890004,33.5359945 136.305999,31.7200126 136.305999,29.192 L136.305999,16.184 L143.121999,16.184 L143.121999,41 Z M153.437333,28.616 C153.437333,29.608005 153.533332,30.5759953 153.725333,31.52 C153.917333,32.4640047 154.24533,33.3119962 154.709333,34.064 C155.173335,34.8160038 155.789329,35.4159978 156.557333,35.864 C157.325336,36.3120022 158.285327,36.536 159.437333,36.536 C160.589338,36.536 161.557329,36.3120022 162.341333,35.864 C163.125336,35.4159978 163.74933,34.8160038 164.213333,34.064 C164.677335,33.3119962 165.005332,32.4640047 165.197333,31.52 C165.389333,30.5759953 165.485333,29.608005 165.485333,28.616 C165.485333,27.623995 165.389333,26.6480048 165.197333,25.688 C165.005332,24.7279952 164.677335,23.8800037 164.213333,23.144 C163.74933,22.4079963 163.125336,21.8080023 162.341333,21.344 C161.557329,20.8799977 160.589338,20.648 159.437333,20.648 C158.285327,20.648 157.325336,20.8799977 156.557333,21.344 C155.789329,21.8080023 155.173335,22.4079963 154.709333,23.144 C154.24533,23.8800037 153.917333,24.7279952 153.725333,25.688 C153.533332,26.6480048 153.437333,27.623995 153.437333,28.616 Z M146.621333,28.616 C146.621333,26.6319901 146.925329,24.8320081 147.533333,23.216 C148.141336,21.5999919 149.005327,20.2240057 150.125333,19.088 C151.245338,17.9519943 152.589325,17.0720031 154.157333,16.448 C155.72534,15.8239969 157.485323,15.512 159.437333,15.512 C161.389342,15.512 163.157325,15.8239969 164.741333,16.448 C166.32534,17.0720031 167.677327,17.9519943 168.797333,19.088 C169.917338,20.2240057 170.781329,21.5999919 171.389333,23.216 C171.997336,24.8320081 172.301333,26.6319901 172.301333,28.616 C172.301333,30.6000099 171.997336,32.391992 171.389333,33.992 C170.781329,35.592008 169.917338,36.9599943 168.797333,38.096 C167.677327,39.2320057 166.32534,40.103997 164.741333,40.712 C163.157325,41.320003 161.389342,41.624 159.437333,41.624 C157.485323,41.624 155.72534,41.320003 154.157333,40.712 C152.589325,40.103997 151.245338,39.2320057 150.125333,38.096 C149.005327,36.9599943 148.141336,35.592008 147.533333,33.992 C146.925329,32.391992 146.621333,30.6000099 146.621333,28.616 Z M199.080666,41 L192.600666,41 L192.600666,37.544 L192.456666,37.544 C191.592661,38.9840072 190.472673,40.0239968 189.096666,40.664 C187.720659,41.3040032 186.312673,41.624 184.872666,41.624 C183.048657,41.624 181.552672,41.3840024 180.384666,40.904 C179.21666,40.4239976 178.296669,39.7440044 177.624666,38.864 C176.952662,37.9839956 176.480667,36.9120063 176.208666,35.648 C175.936664,34.3839937 175.800666,32.9840077 175.800666,31.448 L175.800666,16.184 L182.616666,16.184 L182.616666,30.2 C182.616666,32.2480102 182.936662,33.775995 183.576666,34.784 C184.216669,35.792005 185.352658,36.296 186.984666,36.296 C188.840675,36.296 190.184662,35.7440055 191.016666,34.64 C191.84867,33.5359945 192.264666,31.7200126 192.264666,29.192 L192.264666,16.184 L199.080666,16.184 L199.080666,41 Z M208.627999,32.936 C208.627999,33.6720037 208.779997,34.3039974 209.083999,34.832 C209.388,35.3600026 209.779996,35.7919983 210.259999,36.128 C210.740001,36.4640017 211.291996,36.7119992 211.915999,36.872 C212.540002,37.0320008 213.187995,37.112 213.859999,37.112 C214.340001,37.112 214.843996,37.0560006 215.371999,36.944 C215.900001,36.8319994 216.379997,36.6560012 216.811999,36.416 C217.244001,36.1759988 217.603997,35.856002 217.891999,35.456 C218.18,35.055998 218.323999,34.552003 218.323999,33.944 C218.323999,32.9199949 217.644006,32.1520026 216.283999,31.64 C214.923992,31.1279974 213.028011,30.6160026 210.595999,30.104 C209.603994,29.8799989 208.636004,29.6160015 207.691999,29.312 C206.747994,29.0079985 205.908002,28.6080025 205.171999,28.112 C204.435995,27.6159975 203.844001,26.9920038 203.395999,26.24 C202.947997,25.4879962 202.723999,24.5680054 202.723999,23.48 C202.723999,21.879992 203.035996,20.5680051 203.659999,19.544 C204.284002,18.5199949 205.107994,17.712003 206.131999,17.12 C207.156004,16.527997 208.307992,16.1120012 209.587999,15.872 C210.868005,15.6319988 212.179992,15.512 213.523999,15.512 C214.868006,15.512 216.171992,15.6399987 217.435999,15.896 C218.700005,16.1520013 219.827994,16.583997 220.819999,17.192 C221.812004,17.800003 222.635996,18.607995 223.291999,19.616 C223.948002,20.624005 224.339998,21.8959923 224.467999,23.432 L217.987999,23.432 C217.891998,22.1199934 217.396003,21.2320023 216.499999,20.768 C215.603994,20.3039977 214.548005,20.072 213.331999,20.072 C212.947997,20.072 212.532001,20.0959998 212.083999,20.144 C211.635997,20.1920002 211.228001,20.2959992 210.859999,20.456 C210.491997,20.6160008 210.18,20.8479985 209.923999,21.152 C209.667998,21.4560015 209.539999,21.8639974 209.539999,22.376 C209.539999,22.984003 209.763997,23.4799981 210.211999,23.864 C210.660001,24.2480019 211.243995,24.5599988 211.963999,24.8 C212.684002,25.0400012 213.507994,25.255999 214.435999,25.448 C215.364003,25.640001 216.307994,25.8479989 217.267999,26.072 C218.260004,26.2960011 219.227994,26.5679984 220.171999,26.888 C221.116004,27.2080016 221.955995,27.6319974 222.691999,28.16 C223.428002,28.6880026 224.019997,29.3439961 224.467999,30.128 C224.916001,30.9120039 225.139999,31.8799942 225.139999,33.032 C225.139999,34.6640082 224.812002,36.0319945 224.155999,37.136 C223.499996,38.2400055 222.644004,39.1279966 221.587999,39.8 C220.531994,40.4720034 219.324006,40.9439986 217.963999,41.216 C216.603992,41.4880014 215.220006,41.624 213.811999,41.624 C212.371992,41.624 210.964006,41.4800014 209.587999,41.192 C208.211992,40.9039986 206.988004,40.4240034 205.915999,39.752 C204.843993,39.0799966 203.964002,38.1920055 203.275999,37.088 C202.587995,35.9839945 202.211999,34.6000083 202.147999,32.936 L208.627999,32.936 Z"/>
  </g>
</svg>
