<svg xmlns="http://www.w3.org/2000/svg" width="350" height="540" viewBox="0 0 350 540">
  <g fill="none" fill-rule="evenodd">
    <path fill="#6FEDAB" d="M303.54077,238.007222 C315.020758,241.782552 315.089318,241.788441 303.746448,238.024889 C315.504986,241.278531 315.231948,247.405975 302.927336,256.40722 L184.25024,339.756837 L41.7851407,327.519375 C34.8609537,321.172176 34.8739454,315.60749 41.8241159,310.825318 L164.656219,226.077322 L303.54077,238.007222 Z"/>
    <path fill="#78FFB9" d="M81.2032589 539.420843L62.7107163 460.586584C60.2515543 439.577093 66.4157352 423.424588 81.2032589 412.129069L302.927336 256.40722C315.511182 247.201706 315.511182 241.001906 302.927336 237.80782 320.513352 243.458001 331.14358 252.521631 334.81802 264.99871L346.721725 317.733085C352.73301 340.753165 347.992242 357.309531 332.499424 367.402184 296.088439 392.455128 212.323051 449.794681 81.2032589 539.420843zM20.1814194 196.632878L300.595423 3.61634946C311.620715-3.05074764 318.923725-.499256167 322.504454 11.2708239L340.183195 91.6072134C341.982437 98.8273192 340.693178 104.171941 336.315416 107.641078L41.8241159 310.825318C34.8609293 315.616446 34.8609293 321.193022 41.8241159 327.555044 25.8420294 325.474724 16.7669031 319.143209 14.5987371 308.5605L.611698757 241.90454C-2.13845907 224.44554 4.38478114 209.354986 20.1814194 196.632878z"/>
  </g>
</svg>
