<svg xmlns="http://www.w3.org/2000/svg" width="232" height="54" viewBox="0 0 232 54">
  <g fill="none" fill-rule="evenodd">
    <path fill="#000" fill-rule="nonzero" d="M52,33.2451172 L58.3720703,33.2451172 C58.5917969,35.8330078 60.9111328,38.1279297 65.28125,38.1279297 C69.3339844,38.1279297 71.5556641,36.2724609 71.5556641,33.5136719 C71.5556641,31.1699219 69.8710938,29.9736328 66.4287109,29.1923828 L61.2773438,27.9960938 C56.7119141,26.9707031 52.8300781,24.3828125 52.8300781,18.7919922 C52.8300781,12.2978516 58.3964844,8.70898438 65.2568359,8.70898438 C72.4101562,8.70898438 77.5371094,12.6152344 77.6347656,18.5966797 L71.4335938,18.5966797 C71.2138672,16.1064453 69.2363281,13.8847656 65.2324219,13.8847656 C61.6923828,13.8847656 59.421875,15.5693359 59.421875,18.2792969 C59.421875,20.28125 60.984375,21.6484375 63.9873047,22.3076172 L69.1630859,23.5039062 C74.0947266,24.578125 78.1230469,26.9462891 78.1230469,32.9033203 C78.1230469,39.4462891 72.9472656,43.3525391 64.9150391,43.3525391 C55.2470703,43.3525391 52.0976562,37.8837891 52,33.2451172 Z M83.0302734,10.3935547 C83.0302734,8.39160156 84.6904297,7 86.6679688,7 C88.6699219,7 90.3056641,8.39160156 90.3056641,10.3935547 C90.3056641,12.3955078 88.6699219,13.7626953 86.6679688,13.7626953 C84.6904297,13.7626953 83.0302734,12.3955078 83.0302734,10.3935547 Z M83.4697266,42.7177734 L83.4697266,16.8144531 L89.890625,16.8144531 L89.890625,42.7177734 L83.4697266,42.7177734 Z M96.53125,42.7177734 L96.53125,16.8144531 L102.78125,16.8144531 L102.78125,20.5986328 L103.049805,20.5986328 C103.879883,18.8164062 106.248047,16.3994141 110.569336,16.3994141 C115.842773,16.3994141 119.529297,19.6953125 119.529297,26.0429688 L119.529297,42.7177734 L113.108398,42.7177734 L113.108398,27.4345703 C113.108398,23.4550781 110.813477,21.8681641 108.054688,21.8681641 C104.734375,21.8681641 102.927734,24.2607422 102.927734,27.5322266 L102.927734,42.7177734 L96.53125,42.7177734 Z M148.21582,16.8144531 L148.21582,42.7177734 L141.941406,42.7177734 L141.941406,38.9335938 L141.648438,38.9335938 C140.842773,40.9599609 138.450195,43.1083984 134.177734,43.1083984 C128.879883,43.1083984 125.31543,40.0322266 125.31543,33.9287109 L125.31543,16.8144531 L131.736328,16.8144531 L131.736328,32.2197266 C131.736328,36.4921875 134.15332,37.6640625 136.692383,37.6640625 C139.573242,37.6640625 141.770508,35.7841797 141.770508,32.1464844 L141.770508,16.8144531 L148.21582,16.8144531 Z M165.40332,16.3505859 C173.020508,16.3505859 177.244141,21.5751953 177.244141,28.7285156 L177.244141,30.6328125 C177.244141,38.1767578 173.044922,43.1816406 165.40332,43.1816406 C157.761719,43.1816406 153.538086,38.1767578 153.538086,30.6572266 L153.538086,28.7529297 C153.538086,21.5996094 157.761719,16.3505859 165.40332,16.3505859 Z M165.40332,21.3310547 C161.692383,21.3310547 160.032227,24.5292969 160.032227,28.7285156 L160.032227,30.7304688 C160.032227,34.8076172 161.643555,38.1767578 165.40332,38.1767578 C169.138672,38.1767578 170.75,34.8320312 170.75,30.7304688 L170.75,28.7285156 C170.75,24.5048828 169.114258,21.3310547 165.40332,21.3310547 Z M205.198242,16.8144531 L205.198242,42.7177734 L198.923828,42.7177734 L198.923828,38.9335938 L198.630859,38.9335938 C197.825195,40.9599609 195.432617,43.1083984 191.160156,43.1083984 C185.862305,43.1083984 182.297852,40.0322266 182.297852,33.9287109 L182.297852,16.8144531 L188.71875,16.8144531 L188.71875,32.2197266 C188.71875,36.4921875 191.135742,37.6640625 193.674805,37.6640625 C196.555664,37.6640625 198.75293,35.7841797 198.75293,32.1464844 L198.75293,16.8144531 L205.198242,16.8144531 Z M210.691406,24.5048828 C210.691406,18.7431641 215.623047,16.3505859 221.067383,16.3505859 C227.244141,16.3505859 230.979492,19.4511719 230.979492,24.2607422 L225.291016,24.2607422 C225.120117,22.625 224.070312,20.8183594 220.945312,20.8183594 C218.430664,20.8183594 216.819336,21.9902344 216.819336,23.8945312 C216.819336,26.4580078 220.554688,26.8974609 223.508789,27.4345703 C228.269531,28.2890625 231.760742,29.9248047 231.760742,34.7099609 C231.760742,40.0322266 227.585938,43.1816406 220.725586,43.1816406 C214.060547,43.1816406 210.178711,40.0566406 210.178711,35.4423828 L216.404297,35.4423828 C216.672852,37.3466797 218.333008,38.6650391 221.091797,38.6650391 C224.119141,38.6650391 225.535156,37.2246094 225.535156,35.5400391 C225.535156,33.0253906 222.43457,32.6591797 219.114258,32 C214.451172,31.0234375 210.691406,29.2900391 210.691406,24.5048828 Z"/>
    <path fill="#6FEDAB" d="M30.354077,23.8007222 C31.5020758,24.1782552 31.5089318,24.1788441 30.3746448,23.8024889 C31.5504986,24.1278531 31.5231948,24.7405975 30.2927336,25.640722 L18.425024,33.9756837 L4.17851407,32.7519375 C3.48609537,32.1172176 3.48739454,31.560749 4.18241159,31.0825318 L16.4656219,22.6077322 L30.354077,23.8007222 Z"/>
    <path fill="#78FFB9" d="M8.12032589 53.9420843L6.27107163 46.0586584C6.02515543 43.9577093 6.64157352 42.3424588 8.12032589 41.2129069L30.2927336 25.640722C31.5511182 24.7201706 31.5511182 24.1001906 30.2927336 23.780782 32.0513352 24.3458001 33.114358 25.2521631 33.481802 26.499871L34.6721725 31.7733085C35.273301 34.0753165 34.7992242 35.7309531 33.2499424 36.7402184 29.6088439 39.2455128 21.2323051 44.9794681 8.12032589 53.9420843zM2.01814194 19.6632878L30.0595423.361634946C31.1620715-.305074764 31.8923725-.0499256167 32.2504454 1.12708239L34.0183195 9.16072134C34.1982437 9.88273192 34.0693178 10.4171941 33.6315416 10.7641078L4.18241159 31.0825318C3.48609293 31.5616446 3.48609293 32.1193022 4.18241159 32.7555044 2.58420294 32.5474724 1.67669031 31.9143209 1.45987371 30.85605L.0611698757 24.190454C-.213845907 22.444554.438478114 20.9354986 2.01814194 19.6632878z"/>
  </g>
</svg>
