<svg aria-hidden="true" style="position: absolute; width: 0; height: 0; overflow: hidden;" version="1.1" xmlns="http://www.w3.org/2000/svg" xmlns:xlink="http://www.w3.org/1999/xlink">
<defs>
<symbol id="icon-dots-three-horizontal" viewBox="0 0 20 20">
<title>dots-three-horizontal</title>
<path d="M10.001 7.8c-1.215 0-2.201 0.985-2.201 2.2s0.986 2.2 2.201 2.2c1.215 0 2.199-0.985 2.199-2.2s-0.984-2.2-2.199-2.2zM3.001 7.8c-1.215 0-2.201 0.985-2.201 2.2s0.986 2.2 2.201 2.2c1.215 0 2.199-0.986 2.199-2.2s-0.984-2.2-2.199-2.2zM17.001 7.8c-1.215 0-2.201 0.985-2.201 2.2s0.986 2.2 2.201 2.2c1.215 0 2.199-0.985 2.199-2.2s-0.984-2.2-2.199-2.2z"></path>
</symbol>
<symbol id="icon-keyboard_arrow_right" viewBox="0 0 24 24">
<title>keyboard_arrow_right</title>
<path d="M8.578 16.594l4.594-4.594-4.594-4.594 1.406-1.406 6 6-6 6z"></path>
</symbol>
<symbol id="icon-embed2" viewBox="0 0 40 32">
<title>embed2</title>
<path d="M26 23l3 3 10-10-10-10-3 3 7 7z"></path>
<path d="M14 9l-3-3-10 10 10 10 3-3-7-7z"></path>
<path d="M21.916 4.704l2.171 0.592-6 22.001-2.171-0.592 6-22.001z"></path>
</symbol>
<symbol id="icon-vimeo" viewBox="0 0 32 32">
<title>vimeo</title>
<path d="M31.988 8.563c-0.144 3.113-2.319 7.381-6.525 12.794-4.35 5.65-8.031 8.481-11.044 8.481-1.863 0-3.444-1.719-4.731-5.163-0.863-3.156-1.719-6.313-2.581-9.469-0.956-3.444-1.981-5.162-3.081-5.162-0.237 0-1.075 0.506-2.513 1.506l-1.506-1.938c1.581-1.387 3.138-2.775 4.669-4.162 2.106-1.819 3.688-2.775 4.744-2.875 2.487-0.237 4.025 1.463 4.6 5.106 0.619 3.931 1.050 6.375 1.294 7.331 0.719 3.263 1.506 4.894 2.369 4.894 0.669 0 1.675-1.056 3.019-3.175 1.337-2.113 2.056-3.725 2.156-4.831 0.194-1.825-0.525-2.744-2.156-2.744-0.769 0-1.556 0.175-2.369 0.525 1.575-5.15 4.575-7.65 9.012-7.506 3.281 0.087 4.831 2.219 4.644 6.388z"></path>
</symbol>
<symbol id="icon-github" viewBox="0 0 32 32">
<title>github</title>
<path d="M16 0.395c-8.836 0-16 7.163-16 16 0 7.069 4.585 13.067 10.942 15.182 0.8 0.148 1.094-0.347 1.094-0.77 0-0.381-0.015-1.642-0.022-2.979-4.452 0.968-5.391-1.888-5.391-1.888-0.728-1.849-1.776-2.341-1.776-2.341-1.452-0.993 0.11-0.973 0.11-0.973 1.606 0.113 2.452 1.649 2.452 1.649 1.427 2.446 3.743 1.739 4.656 1.33 0.143-1.034 0.558-1.74 1.016-2.14-3.554-0.404-7.29-1.777-7.29-7.907 0-1.747 0.625-3.174 1.649-4.295-0.166-0.403-0.714-2.030 0.155-4.234 0 0 1.344-0.43 4.401 1.64 1.276-0.355 2.645-0.532 4.005-0.539 1.359 0.006 2.729 0.184 4.008 0.539 3.054-2.070 4.395-1.64 4.395-1.64 0.871 2.204 0.323 3.831 0.157 4.234 1.026 1.12 1.647 2.548 1.647 4.295 0 6.145-3.743 7.498-7.306 7.895 0.574 0.497 1.085 1.47 1.085 2.963 0 2.141-0.019 3.864-0.019 4.391 0 0.426 0.288 0.925 1.099 0.768 6.354-2.118 10.933-8.113 10.933-15.18 0-8.837-7.164-16-16-16z"></path>
</symbol>
</defs>
</svg>
